<svg width="692" height="692" xmlns="http://www.w3.org/2000/svg" version="1.1">

 <g>
  <title>Layer 1</title>
  <path id="svg_1" fill="#7d8a6a" d="m346,692c191.0905,0 346,-154.90949 346,-346c0,-191.0905 -154.9095,-346 -346,-346c-191.09053,0 -346,154.9095 -346,346c0,191.09051 154.90947,346 346,346z"/>
  <path id="svg_2" fill="#ffffff" d="m47.99997,385.91c99.49,4.22 199.69,1.52001 299.26,1.54001c99,0 198.00005,1.17 297.00006,-0.75c-0.5,0 -1.14007,-1.83002 -1.81006,-1.84002c-99.46,-1.86 -199,-0.77 -298.48,-0.75c-98.53,0 -197.82,-3 -296.25,1.54001c0.06,0 0.16,0.26 0.26,0.26l0.02,0z"/>
  <path id="svg_3" fill="#ffffff" d="m129.64001,444.73999zm13.62471,-4.2001l9.68071,-20.94927l2.66348,0l-12.34419,25.84084l-12.34419,-25.84084l2.66347,0l9.68072,20.94927zm13.6247,4.2001zm6.6587,-25.14937l0,25.14937l-2.30493,0l0,-25.14937l2.30493,0zm-1.15247,-8.9124c0.63173,0 1.16954,0.22195 1.61345,0.66587c0.46099,0.44391 0.69149,0.98173 0.69149,1.61345c0,0.64879 -0.2305,1.19515 -0.69149,1.63906c-0.44391,0.44391 -0.98172,0.66587 -1.61345,0.66587c-0.63172,0 -1.17808,-0.22196 -1.63906,-0.66587c-0.44392,-0.44391 -0.66587,-0.99027 -0.66587,-1.63906c0,-0.63172 0.22195,-1.16954 0.66587,-1.61345c0.46098,-0.44392 1.00734,-0.66587 1.63906,-0.66587zm5.50623,34.06177zm7.427,-25.14937l0,-10.70513l2.30493,0l0,10.70513l5.12207,0l0,2.30493l-5.12207,0l0,22.84443l-2.30493,0l0,-22.84443l-5.12207,0l0,-2.30493l5.12207,0zm9.73193,25.14937zm30.98853,0l-2.30494,0l0,-5.12208c-0.44391,0.59758 -0.93051,1.16955 -1.45979,1.7159c-2.74884,2.74884 -6.06965,4.12327 -9.96242,4.12327c-3.8757,0 -7.18797,-1.37443 -9.93682,-4.12327c-2.74884,-2.74885 -4.12326,-6.06112 -4.12326,-9.93682c0,-3.89277 1.37442,-7.21358 4.12326,-9.96242c2.74885,-2.74885 6.06112,-4.12327 9.93682,-4.12327c3.89277,0 7.21358,1.37442 9.96242,4.12327c0.52928,0.54635 1.01588,1.11831 1.45979,1.71589l0,-3.55984l2.30494,0l0,25.14937zm-2.30494,-11.06368l0,-4.55864c-0.42684,-2.25371 -1.49393,-4.23424 -3.20129,-5.9416c-2.27078,-2.27079 -5.01109,-3.40618 -8.22092,-3.40618c-3.20984,0 -5.95014,1.13539 -8.22093,3.40618c-2.27078,2.27078 -3.40617,5.01109 -3.40617,8.22092c0,3.20983 1.13539,5.95014 3.40617,8.22092c2.27079,2.25372 5.01109,3.38057 8.22093,3.38057c3.20983,0 5.95014,-1.13539 8.22092,-3.40618c1.70736,-1.70735 2.77445,-3.67935 3.20129,-5.91599zm6.14649,11.06368zm3.84155,-25.14937l2.30493,0l0,0.58904c1.43418,-1.38296 3.15007,-2.07444 5.14769,-2.07444c2.0659,0 3.82447,0.72562 5.27573,2.17688c0.39269,0.39269 0.73416,0.81953 1.02441,1.28052c0.29025,-0.44391 0.64025,-0.87076 1.05002,-1.28052c1.45126,-1.45126 3.20983,-2.17688 5.27574,-2.17688c2.0659,0 3.82447,0.72562 5.27573,2.17688c1.38296,1.40003 2.10859,3.08178 2.17688,5.04524l0,19.41264l-2.30493,0l0,-19.41264l0.02561,0c-0.06829,-1.33174 -0.57196,-2.46713 -1.51101,-3.40618c-1.02441,-1.00734 -2.24518,-1.51101 -3.66228,-1.51101c-1.41711,0 -2.63787,0.50367 -3.66228,1.51101c-1.00734,1.00734 -1.51101,2.26225 -1.51101,3.76472l0,19.05411l-2.30493,0l0,-19.41265l0.0256,0c-0.06829,-1.33174 -0.57196,-2.46713 -1.51101,-3.40618c-1.02441,-1.00734 -2.24517,-1.51101 -3.66227,-1.51101c-1.41711,0 -2.62934,0.50367 -3.63668,1.51101c-0.88782,0.87075 -1.39149,1.93785 -1.51101,3.2013l0,19.61753l-2.30493,0l0,-25.14937zm31.39829,25.14937zm6.6587,-25.14937l0,25.14937l-2.30493,0l0,-25.14937l2.30493,0zm-1.15247,-8.9124c0.63173,0 1.16954,0.22195 1.61345,0.66587c0.46098,0.44391 0.69148,0.98173 0.69148,1.61345c0,0.64879 -0.2305,1.19515 -0.69148,1.63906c-0.44391,0.44391 -0.98172,0.66587 -1.61345,0.66587c-0.63173,0 -1.17808,-0.22196 -1.63907,-0.66587c-0.44391,-0.44391 -0.66586,-0.99027 -0.66586,-1.63906c0,-0.63172 0.22195,-1.16954 0.66586,-1.61345c0.46099,-0.44392 1.00734,-0.66587 1.63907,-0.66587zm5.50623,34.06177zm6.14648,-19.5407l0,19.5407l-2.30493,0l0,-25.14937l2.30493,0l0,1.61345c2.10005,-2.08297 4.54157,-3.12446 7.32456,-3.12446c2.97081,0 5.38671,0.93051 7.24774,2.79153c1.861,1.86102 2.81712,4.20863 2.86834,7.04285l0,16.826l-2.30493,0l0,-16.62112c0,-2.1342 -0.77684,-3.95253 -2.33053,-5.45501c-1.53662,-1.51954 -3.3635,-2.27932 -5.48062,-2.27932c-2.11712,0 -3.94399,0.7427 -5.48062,2.2281c-0.8366,0.83661 -1.45125,1.69882 -1.84394,2.58665zm21.30782,19.5407zm10.75634,-12.93323c-1.96345,-1.05856 -3.32082,-1.96346 -4.07205,-2.7147c-1.17807,-1.17807 -1.7671,-2.59518 -1.7671,-4.25132c0,-1.67321 0.58903,-3.09885 1.7671,-4.27693c1.17809,-1.19515 2.59519,-1.79272 4.25133,-1.79272c1.6732,0 3.05617,0.54635 4.14888,1.63906c1.05855,1.07563 1.58782,2.2964 1.58782,3.66228l0,0.12805l-1.9976,0.79393c-0.17073,-1.2976 -0.5805,-2.27079 -1.22929,-2.91959c-0.63173,-0.64879 -1.46832,-0.97319 -2.50981,-0.97319c-1.02441,0 -1.9037,0.36708 -2.63786,1.10125c-0.73418,0.71708 -1.10126,1.59637 -1.10126,2.63786c0,1.02442 0.36708,1.90371 1.10126,2.63787c0.42683,0.42684 1.33174,1.07563 2.71469,1.94638c2.18541,1.19515 3.7391,2.25372 4.66108,3.17569c1.45125,1.46833 2.17688,3.21836 2.17688,5.25012c0,2.08298 -0.72563,3.85863 -2.17688,5.32695c-1.45124,1.45125 -3.20983,2.17688 -5.27574,2.17688c-2.0659,0 -3.82448,-0.72563 -5.27572,-2.17688c-1.45125,-1.46832 -2.17688,-3.07324 -2.17688,-4.81474l2.27932,-0.58904c0,1.50248 0.50367,2.75738 1.51101,3.76472c1.0244,1.00734 2.24517,1.51101 3.66227,1.51101c1.41712,0 2.62933,-0.50367 3.63668,-1.51101c1.02441,-1.00734 1.53662,-2.23664 1.53662,-3.68789c0,-1.4171 -0.50367,-2.62933 -1.511,-3.63667c-0.54637,-0.54635 -1.6476,-1.34881 -3.30375,-2.40737zm27.91528,12.93323zm30.98853,0l-2.30493,0l0,-5.12208c-0.44391,0.59758 -0.93051,1.16955 -1.4598,1.7159c-2.74883,2.74884 -6.06963,4.12327 -9.96241,4.12327c-3.8757,0 -7.18797,-1.37443 -9.93683,-4.12327c-2.74884,-2.74885 -4.12326,-6.06112 -4.12326,-9.93682c0,-3.89277 1.37442,-7.21358 4.12326,-9.96242c2.74886,-2.74885 6.06113,-4.12327 9.93683,-4.12327c3.89278,0 7.21358,1.37442 9.96241,4.12327c0.52929,0.54635 1.01589,1.11831 1.4598,1.71589l0,-3.55984l2.30493,0l0,25.14937zm-2.30493,-11.06368l0,-4.55864c-0.42683,-2.25371 -1.49394,-4.23424 -3.2013,-5.9416c-2.27078,-2.27079 -5.01109,-3.40618 -8.22091,-3.40618c-3.20984,0 -5.95015,1.13539 -8.22093,3.40618c-2.27078,2.27078 -3.40618,5.01109 -3.40618,8.22092c0,3.20983 1.1354,5.95014 3.40618,8.22092c2.27078,2.25372 5.01109,3.38057 8.22093,3.38057c3.20982,0 5.95013,-1.13539 8.22091,-3.40618c1.70736,-1.70735 2.77447,-3.67935 3.2013,-5.91599zm6.14649,11.06368zm6.14648,-19.5407l0,19.5407l-2.30493,0l0,-25.14937l2.30493,0l0,1.61345c2.10005,-2.08297 4.54156,-3.12446 7.32455,-3.12446c2.97081,0 5.38672,0.93051 7.24774,2.79153c1.86102,1.86102 2.81714,4.20863 2.86838,7.04285l0,16.826l-2.30494,0l0,-16.62112c0,-2.1342 -0.77685,-3.95253 -2.33053,-5.45501c-1.53665,-1.51954 -3.36352,-2.27932 -5.48065,-2.27932c-2.11711,0 -3.94398,0.7427 -5.4806,2.2281c-0.83662,0.83661 -1.45127,1.69882 -1.84395,2.58665zm21.30782,19.5407zm30.98851,0l-2.30491,0l0,-5.12208c-0.44391,0.59758 -0.93051,1.16955 -1.45979,1.7159c-2.74886,2.74884 -6.06966,4.12327 -9.96242,4.12327c-3.87571,0 -7.18799,-1.37443 -9.93683,-4.12327c-2.74885,-2.74885 -4.12326,-6.06112 -4.12326,-9.93682c0,-3.89277 1.37441,-7.21358 4.12326,-9.96242c2.74884,-2.74885 6.06112,-4.12327 9.93683,-4.12327c3.89276,0 7.21356,1.37442 9.96242,4.12327c0.52928,0.54635 1.01588,1.11831 1.45979,1.71589l0,-19.38704l2.30491,0l0,40.97656l0,0.00001zm-2.30491,-11.06368l0,-4.55864c-0.42685,-2.25371 -1.49393,-4.23424 -3.2013,-5.9416c-2.27079,-2.27079 -5.01111,-3.40618 -8.22091,-3.40618c-3.20984,0 -5.95014,1.13539 -8.22092,3.40618c-2.27078,2.27078 -3.40619,5.01109 -3.40619,8.22092c0,3.20983 1.13541,5.95014 3.40619,8.22092c2.27078,2.25372 5.01108,3.38057 8.22092,3.38057c3.2098,0 5.95012,-1.13539 8.22091,-3.40618c1.70737,-1.70735 2.77445,-3.67935 3.2013,-5.91599zm24.27861,11.06368zm3.84156,-25.14937l2.30494,0l0,0.58904c1.43417,-1.38296 3.15008,-2.07444 5.14767,-2.07444c2.06589,0 3.82446,0.72562 5.27573,2.17688c0.3927,0.39269 0.73416,0.81953 1.0244,1.28052c0.29026,-0.44391 0.6403,-0.87076 1.05006,-1.28052c1.45124,-1.45126 3.20984,-2.17688 5.27573,-2.17688c2.06588,0 3.82446,0.72562 5.27571,2.17688c1.38298,1.40003 2.10859,3.08178 2.17689,5.04524l0,19.41264l-2.30493,0l0,-19.41264l0.02561,0c-0.0683,-1.33174 -0.57197,-2.46713 -1.51102,-3.40618c-1.02442,-1.00734 -2.24518,-1.51101 -3.66226,-1.51101c-1.41712,0 -2.63789,0.50367 -3.6623,1.51101c-1.00735,1.00734 -1.51101,2.26225 -1.51101,3.76472l0,19.05411l-2.30493,0l0,-19.41265l0.02563,0c-0.0683,-1.33174 -0.57198,-2.46713 -1.51102,-3.40618c-1.02441,-1.00734 -2.24517,-1.51101 -3.66229,-1.51101c-1.41708,0 -2.6293,0.50367 -3.63667,1.51101c-0.88783,0.87075 -1.3915,1.93785 -1.511,3.2013l0,19.61753l-2.30494,0l0,-25.14937zm31.39829,25.14937zm16.36502,-27.42869c3.89276,0 7.20502,1.37442 9.9368,4.12327c2.74887,2.74884 4.12329,6.06965 4.12329,9.96242c0,3.8757 -1.37442,7.18797 -4.12329,9.93682c-2.73178,2.74884 -6.04404,4.12327 -9.9368,4.12327c-3.8757,0 -7.18799,-1.37443 -9.93683,-4.12327c-2.74884,-2.74885 -4.12326,-6.06112 -4.12326,-9.93682c0,-3.89277 1.37442,-7.21358 4.12326,-9.96242c2.74884,-2.74885 6.06113,-4.12327 9.93683,-4.12327zm0,2.45859c-3.20984,0 -5.95013,1.13539 -8.22092,3.40618c-2.27078,2.27078 -3.40619,5.01109 -3.40619,8.22092c0,3.20983 1.13541,5.95014 3.40619,8.22092c2.27079,2.25372 5.01108,3.38057 8.22092,3.38057c3.20981,0 5.95013,-1.12685 8.22092,-3.38057c2.27078,-2.27078 3.40619,-5.01109 3.40619,-8.22092c0,-3.20983 -1.13541,-5.95014 -3.40619,-8.22092c-2.27079,-2.27079 -5.01111,-3.40618 -8.22092,-3.40618zm16.36502,24.9701zm3.84155,-25.14937l2.30494,0l0,4.58425c0.47805,-0.68294 1.03295,-1.34027 1.66467,-1.97199c2.03175,-2.03176 4.11474,-3.09886 6.24893,-3.2013l0,2.50982c-1.45128,0.06829 -2.95373,0.87928 -4.50742,2.43298c-2.18542,2.16834 -3.32083,4.77206 -3.40618,7.81116l0,12.98445l-2.30494,0l0,-25.14937zm11.42221,25.14937zm8.63068,-4.71231c2.16837,1.98054 4.74646,2.9708 7.73435,2.9708c3.2098,0 5.95012,-1.13539 8.22091,-3.40618c0.29025,-0.29025 0.56341,-0.58904 0.81951,-0.89636l2.43299,0.87076c-0.4439,0.61464 -0.94759,1.20368 -1.51099,1.76711c-2.74886,2.74884 -6.06966,4.12327 -9.96242,4.12327c-3.87571,0 -7.18799,-1.37443 -9.93683,-4.12327c-2.74885,-2.74885 -4.12326,-6.06966 -4.12326,-9.96243c0,-3.8757 1.37441,-7.18797 4.12326,-9.93681c2.74884,-2.74885 6.06112,-4.12327 9.93683,-4.12327c3.32932,0 6.24038,0.9988 8.73312,2.99641c0.40976,0.34147 0.81955,0.71709 1.2293,1.12686c0.15366,0.15366 0.29878,0.30732 0.43537,0.46098l-1.74151,1.74151l-16.39063,16.39062zm14.70035,-17.95286c-1.99759,-1.53662 -4.31961,-2.30493 -6.966,-2.30493c-3.19278,0 -5.92453,1.13539 -8.19532,3.40618c-2.27078,2.25371 -3.40619,4.98548 -3.40619,8.19531c0,2.64641 0.76831,4.96841 2.30493,6.96602l16.26258,-16.26258z"/>
  <text x="-51" y="493" id="svg_4" font-family="Unnamed" font-size="52.45" transform="matrix(1 0 0 1 129.64 435.434)" xml:space="preserve">
   <tspan id="svg_5" x="0 27.221554 38.183607 55.334756 90.16156 125.355518 136.31757 163.69647 184.20442 202.29967 237.12647 264.50538 299.33219 317.42744 352.62138 385.35017 400.5887" y="333.30633">vitamins and more</tspan>
  </text>
  <path id="svg_6" fill="#ffffff" d="m65.59997,346.62c-6.11,-7.46 -8.41,-15.32999 -9.09,-31.60999c-0.26888,-7.34879 0.5055,-14.69861 2.30001,-21.83001c2.72,-11.67 6.50999,-18.45 13.99999,-24.56c4.47,-3.66001 6.91001,-4.88 10.17001,-5.56c1.11145,-0.2611 2.24835,-0.39861 3.39,-0.41c5.56,0 10.45,3.26001 12.89,8.82c2,4.75 1.75999,7.73001 -1.09,7.73001c-1,0 -1.9,-0.81001 -4.88,-4.20001c-5.16,-6 -7,-6.78 -12.07,-3.94c-6.79,3.8 -11.67,10.30999 -14.11,19.26999c-2.31,8.41 -3.53,22.79002 -2.85,29.43002c0.54,5.7 2,12.20998 3.53,15.59998c2.3,5.16 7.86,9.90002 12.61,10.58002c1.63,0.41 6,-0.54 9,-1.9c2.39698,-1.13803 4.70659,-2.45163 6.90999,-3.93002c3.67001,-2.31 5.00001,-2.99999 5.84001,-2.70999c2.3,0.80999 0.54,5 -4.21,9.22c-2.85488,2.70666 -6.2683,4.75471 -10,6c-3,0.81 -11.26001,1.21999 -13.70001,0.67999c-2.44,-0.54 -5.52,-2.87999 -8.64,-6.67999z"/>
  <path id="svg_7" fill="#ffffff" d="m178.85997,319.89999c0.54,-41.09999 1.09001,-54.66998 2.44001,-57.10998c0.27729,-0.5617 0.70394,-1.03617 1.23315,-1.37134c0.52921,-0.33517 1.14052,-0.51806 1.76685,-0.52866c0.83228,0.02404 1.63632,0.3072 2.3,0.81c1.40552,2.36881 2.67425,4.81613 3.79999,7.32999c6.51,14 12.75,26.32001 13.3,26.32001c0.55,0 7.19001,-12.89 13.15001,-25.91001c1.17995,-2.66913 2.53973,-5.25506 4.06999,-7.73999c1.9,-1.76 5.16,-0.40001 5.84,2.44998c0.4,2.17 0.95,11.53001 1.22,21.29001c0.54,16.15 0.81001,65.25 0.54001,66.47c-0.68,2 -2.85,2.17 -4.2,0.26999c-1.9,-2.3 -2.00001,-3.93 -2.18001,-32.28c-0.27,-26.45 -0.67,-39.60997 -1.08,-41.50998c-0.27,-1.08999 -0.40999,-0.95 -1.89999,1.9c-1,1.76 -2.44,4.87998 -3.39,6.91998c-2.85,6.37 -8.41001,17 -9.77001,18.44c-0.26274,0.44263 -0.6428,0.80396 -1.09814,1.04398c-0.45534,0.24002 -0.96821,0.3494 -1.48186,0.31604c-0.81,0 -1.35,-0.27002 -2.3,-1.36002c-1.22,-1.62 -6.92,-12.88 -9.36,-18.44c-1.09,-2 -2.44,-5.15998 -3.39,-6.91998c-1.49,-2.85 -1.63,-2.99999 -1.9,-1.9c-0.41,2 -0.80999,14.92 -1.08999,41.37c-0.4,28.76 -0.4,30.24999 -2.17,32.41998c-0.95,1.09 -2.71001,1.63 -3.52001,1.09c-0.95999,-0.82 -0.96,-2.84999 -0.83,-33.37z"/>
  <path id="svg_8" fill="#ffffff" d="m249.67001,353.81c-0.63312,-0.96834 -0.96381,-2.10315 -0.95,-3.26002c-0.4,-3.92999 -0.13,-47.61 0.68,-59c0.41,-5.55999 0.68001,-12.99998 0.81001,-16.41998c0,-7.32 0.28,-8.00001 3,-9.63c3,-1.49 4.2,-1.9 17.23,-1.9l6.51001,0c11.52999,0 14.37999,0.41001 14.64999,1.63001c0.09477,0.59101 0.04512,1.19618 -0.14468,1.76385c-0.18981,0.56768 -0.51413,1.08097 -0.94532,1.49613c-1.22,1.22 -4.07001,1.49001 -16.14001,2.17001c-12.07,0.68 -16.40999,0.67999 -16.67999,1.07999c-0.23645,1.16292 -0.37361,2.34384 -0.41001,3.53c-0.27,3.93 -0.95001,23.06001 -0.95001,26.86001l0,2.87l13.83002,-0.14002c7.6,-0.13 14.25,0.00002 14.79001,0.14002c2.16999,0.54 0.40998,3.93001 -2.58002,5.42001c-0.54,0.27 -6.37,0.81999 -12.75,1.09c-6.64,0.27 -12.20999,0.80998 -12.60999,1.07998c-1.09,0.55 -1.36001,3.26 -1.09001,20.62c0.27,17.91 0.27,17.91002 -2.17,20.21002c-1.08,1.63 -2.84999,1.76997 -3.92999,0.40997l-0.15001,-0.01998z"/>
  <path id="svg_9" fill="#ffffff" d="m321.16002,326c0,-9.22 -0.13999,-17.63001 -0.26998,-19.26001c-0.46003,-2.08566 -1.1895,-4.10259 -2.17002,-6c-5.10802,-9.65218 -11.00828,-18.86377 -17.64001,-27.53998c-4.88,-6.1 -5.68999,-8.27 -3.51999,-10.44c0.81,-0.54 1.35001,-1 1.76001,-1c0.76615,0.23122 1.49645,0.56778 2.16998,1c1.22,0.68 5.56002,5.82999 8.27002,9.89999c3.8,5.83001 11.39998,17.36001 12.47998,19.26001c0.61539,0.98497 1.28301,1.93631 2,2.84998c1,0.68 1.00001,0.68003 1.76001,-0.12998c0.76,-0.81 4.60999,-6.51002 11.79999,-17.37002c4.07,-6 9.00001,-12.2 10.86001,-14c1.86,-1.8 3.38999,-1.89998 4.60999,-0.53998c2,2.58 1.35001,4.60998 -3.79999,10.84998c-5.56,6.78 -14.78999,20.76001 -18.17999,27.67001c-1.9,3.67 -2.30001,7.59999 -2.44001,29.70999c-0.13,9.5 -0.53999,17.91 -0.67999,18.59c-0.81,2.3 -4.88001,4.34002 -5.83001,2.71002c-0.77,-0.89 -1.18,-11.07001 -1.18,-26.26001z"/>
  <path id="svg_10" fill="#ffffff" d="m418.15,346.62c-6.11,-7.46 -8.41,-15.32999 -9.09,-31.60999c-0.26391,-7.34862 0.51038,-14.69775 2.29999,-21.83001c2.72,-11.67 6.52,-18.45 14,-24.56c4.47,-3.66001 6.91001,-4.88 10.17001,-5.56c1.11145,-0.2611 2.24837,-0.39861 3.39002,-0.41c5.56,0 10.44998,3.26001 12.88998,8.82c2,4.75 1.76,7.73001 -1.08999,7.73001c-0.95,0 -1.90001,-0.81001 -4.88001,-4.20001c-5.16,-6 -7.05001,-6.78 -12.07001,-3.94c-6.79,3.8 -11.66998,10.30999 -14.10998,19.26999c-2.31,8.41 -3.53001,22.79002 -2.85001,29.43002c0.54,5.7 2,12.20998 3.53,15.59998c2.3,5.16 7.87002,9.90002 12.61002,10.58002c1.63,0.41 6,-0.54 9,-1.9c2.39813,-1.1358 4.70789,-2.44949 6.90997,-3.93002c3.67,-2.31 5.00003,-2.99999 5.84003,-2.70999c2.3,0.80999 0.53998,5 -4.21002,9.22c-2.85489,2.70666 -6.2683,4.75471 -10.00001,6c-3,0.81 -11.25998,1.21999 -13.69998,0.67999c-2.44,-0.54 -5.52001,-2.87999 -8.64001,-6.67999z"/>
  <path id="svg_11" fill="#ffffff" d="m511.99997,343.37001c-2.72,-10.18 -6.92,-25.51 -7.19,-25.78c-0.27,-0.27 -3.94,-0.68 -8.41,-1.22c-4.47,-0.54 -8.54998,-1.21999 -9.22998,-1.35999c-1.9,-0.27 -2.58,0.67998 -4.75,6.78998c-1.08,3 -3.52,9.63 -5.69,14.78c-2.17,5.15 -4.21,11 -5,12.75c-2.44,5.16 -4.21002,7.33 -5.70002,5.16c-0.41,-0.41 -0.68001,-1.75999 -0.54,-4.33999c-0.00001,-4.75 0.81,-8.27999 6.51,-21.70999c2.31,-5.42 5.56,-14.37999 7.46,-19.79999l7.19,-20.64002c2,-6 4.48001,-13.16 5.29001,-15.86999c0.81,-2.71 1.63001,-5.29 1.76001,-5.56c0.2949,-0.40161 0.68518,-0.72347 1.13562,-0.93646c0.45043,-0.213 0.94683,-0.31043 1.44436,-0.28354c0.27,0 0.54,0.13 0.81,0.13c1.5,0.68 2.00002,2 2.58002,5.84c0.85183,4.53904 1.98399,9.02093 3.38998,13.41998c1.77,5.57 3.80001,12.62002 4.48001,15.33002c1.63,6.51 2.57998,8.40998 4.06998,9.22998c1.49,1.08 1.75999,2.00001 1.35999,4.20001c-0.40001,2.20001 0.13005,5.99999 3.12005,16.54999c4.2,14.92 5.15,19.81 4.06,22.25c-0.40041,0.89275 -1.00296,1.68018 -1.76001,2.30002c-0.81,0.68 -0.95003,0.68 -1.90003,0c-1.34999,-0.92 -2.29999,-3.10002 -4.48999,-11.23001zm-9,-34.87c-0.95,-2.57 -6.51001,-22.64999 -6.51001,-23.06c-0.08293,-0.483 -0.26692,-0.94304 -0.53997,-1.35c-0.14,-0.28 -0.27001,-0.28 -0.41001,-0.28c-0.4,0 -0.67999,0.82 -1.89999,3.53c-2.3,5 -5.83002,16.69 -5.83002,18.59c0,2.3 2.00002,3.11999 10.58002,3.11999c3.72,0 4.80998,0.00001 4.66998,-0.54999l-0.06,0z"/>
  <path id="svg_12" fill="#ffffff" d="m536.29999,305.10998c-0.82,-33.5 -0.54998,-38.11997 1.90002,-39.46997c0.81,-0.68 14.1,-3.53003 15.87,-3.53003c4.07,0 12.99997,3.53003 17.08997,6.78003c1.97312,1.43193 3.62993,3.25518 4.867,5.35596c1.23707,2.10078 2.02786,4.43401 2.323,6.85403c0.54,4.89 -2.30998,10.72 -9.22998,18.18c-4.06,4.61 -4.06,4.61 -4.06,6.78c0,3.66 5.83001,17.37 12.88001,30.25c1.63,3.12 3.79998,7.33001 4.47998,9.23001c1.9,4.07 1.9,5.56 0,7.19c-1.36,1.22 -2.70997,0.94999 -4.33997,-0.82001c-4.61,-5.15 -13.43003,-22.91999 -18.59003,-36.89999c-0.72419,-2.28229 -1.6304,-4.50277 -2.70996,-6.64002l-0.68005,-0.94998l-6,1.34998l-6.09998,1.23001l0.14002,2.17001c0.54,3 0.26998,36.08 -0.14002,38c-0.08967,0.79621 -0.47386,1.53008 -1.07709,2.05744c-0.60322,0.52736 -1.38187,0.81006 -2.18292,0.79254c-3.36,-0.02 -3.22,1.97999 -4.44,-47.91001zm14.51001,-4.10998c11.94,-2.71 19.40002,-9.90001 20.08002,-19.26001c0.13,-2.71 0.12999,-3.26 -0.82001,-5c-2.3,-4.48 -9.00004,-7.59998 -15.60004,-7.72998c-0.67,0 -1.48998,0.13 -2.16998,0.13c-2.71,0.28 -9.22001,1.76999 -9.76001,2.18c0,0.12999 -0.13995,5.83 -0.13995,13c0,13.29 0.14,15.99998 1.63,16.94998c0.97,0.59 3.52997,0.45001 6.77997,-0.26999z"/>
  <path id="svg_13" fill="#ffffff" d="m600.05006,354.07999c-0.27,0 -0.39998,0.00002 -0.53998,-0.12998c-1.63,-0.68 -2,-1.90002 -1.63,-6.65002c0.27,-2.71 0.27001,-17.08999 0.14001,-36.48999c-0.14,-17.5 -0.14001,-33.78 -0.14001,-36.22c0,-6.37 0.55001,-7.87 4.07001,-8.67999c3.12,-0.68 16.68997,-1.48999 22.65997,-1.48999c7,0 9.63002,0.12999 10.58002,1.61999c0.34319,0.60439 0.44935,1.31482 0.29779,1.99313c-0.15156,0.67832 -0.55,1.276 -1.1178,1.67685c-0.68,0.13 -5.56001,0.40003 -11.26001,0.68003c-9.63,0.4 -15.45996,0.94998 -17.89996,1.75998c-1.00001,0.26999 -1.09001,0.41 -1.00001,2c0.13001,6.51 0.41,22.52001 0.68,25.64001l0.26996,4.06998l11.66003,0.14001c7.33,0.13 11.66998,0.4 12.34998,0.81c0.95,0.54 1.21999,1.75999 0.81,3.11999c-0.81001,2.17 -1.34998,2.31001 -13.15998,2.44001l-11,0.14001l-0.14001,2.70999c-0.41,8.55 -0.99998,30.25 -0.53998,32.56l0.39996,1.22l13,0c14,0 15.46,0.27 15.87,2c0.04351,0.74427 -0.10903,1.48692 -0.44245,2.15375c-0.33341,0.66683 -0.83599,1.23449 -1.45752,1.64624c-0.68,0.27 -5.69999,0.68001 -14.23999,0.82001c-7.06,0.12999 -14.25003,0.26999 -15.60003,0.39999c-0.81188,0.10932 -1.63097,0.15614 -2.45002,0.14002c-0.06198,-0.01349 -0.12008,-0.04086 -0.16998,-0.08002z"/>
  <path id="svg_14" fill="#ffffff" d="m138.34,317.20999c0.67,-3.18 4.13,-4.72 7.14,-4.06c5.46,1.17 6.22001,8.00002 2.93001,11.70002c-1.69,1.93 -4.42,3.27999 -6.84,4.77999c-2.11,1.3 -3.31001,2.43999 -3.90001,4.76999l-0.13,0c-0.23,-2.59 1.07,-4.41 3,-6.1c1.93,-1.69 4.36,-3.04999 5.8,-5.07999c1.81,-2.56 1.75,-6.68 -1.58,-7.94c-1.13761,-0.42784 -2.38434,-0.46968 -3.54808,-0.11911c-1.16375,0.35056 -2.17991,1.07409 -2.89191,2.05911l0.01999,-0.01001z"/>
  <path id="svg_15" fill="#ffffff" d="m137.24,332.10998c-1,-3.67 -6.05001,-4.25998 -8.62002,-7.10998c-2.56999,-2.85 -2.64,-7.94 1.06,-9.78c3.7,-1.84 7.55001,1.12998 8.44001,3.35998c0.42178,-0.91778 1.15666,-1.65534 2.0729,-2.08047c0.91624,-0.42514 1.95393,-0.51003 2.9271,-0.2395c-2.31,-0.11 -4.31,2.41998 -5.2,4.63998c-1,-2.83 -3.77,-5.52999 -7,-3.82999c-2.38,1.35 -2.00001,4.73 -0.52001,6.62c2,2.65 7.39001,4.40998 6.88001,8.41998l-0.03999,0z"/>
  <path id="svg_16" fill="#ffffff" d="m138,333.23001c0.16,-1.68 1.07999,-3.16001 2.92999,-4.76001c0.59,-0.51 1.26001,-0.99999 1.91001,-1.48999c1.4835,-1.00748 2.80814,-2.23099 3.93,-3.63c0.55629,-0.78137 0.93419,-1.67537 1.10698,-2.61884c0.1728,-0.94346 0.13628,-1.91336 -0.10698,-2.84115c-0.19197,-0.65347 -0.53574,-1.25229 -1.00323,-1.74759c-0.4675,-0.4953 -1.04547,-0.87305 -1.68677,-1.10242c-0.63688,-0.25232 -1.31498,-0.38456 -2,-0.39002c-1.456,0.01445 -2.85271,0.57887 -3.91,1.58002c0.47003,-0.93011 1.19598,-1.70662 2.09241,-2.2381c0.89642,-0.53147 1.926,-0.7958 2.96759,-0.7619c0.45382,-0.00395 0.90665,0.043 1.35,0.13999c0.99381,0.18896 1.9177,0.64407 2.6732,1.3168c0.75551,0.67273 1.31429,1.53788 1.61679,2.5032c0.38185,1.2796 0.43731,2.63443 0.16134,3.94095c-0.27598,1.30653 -0.87462,2.5232 -1.74134,3.53906c-1.56445,1.57416 -3.35807,2.9025 -5.31999,3.93998l-1.29001,0.79c-1.63243,0.81301 -2.93282,2.16643 -3.67999,3.83002z"/>
  <path id="svg_17" fill="#ffffff" d="m136.76,330.68c-0.91,-1.49 -2.56999,-2.39998 -4.18999,-3.29998c-1.39027,-0.66764 -2.66338,-1.55578 -3.77,-2.63001c-0.67519,-0.7745 -1.16916,-1.68982 -1.44594,-2.67932c-0.27679,-0.9895 -0.32942,-2.02827 -0.15407,-3.04068c0.21781,-1.16498 0.83765,-2.21655 1.7514,-2.97131c0.91376,-0.75476 2.06345,-1.16483 3.2486,-1.1587c1.17461,0.04656 2.31398,0.41424 3.29425,1.06305c0.98027,0.64882 1.76391,1.55391 2.26575,2.61695l0.20001,0.51001l0.23999,-0.48999c0.28927,-0.58744 0.71067,-1.09989 1.23116,-1.49719c0.52048,-0.39731 1.12592,-0.66868 1.76884,-0.79282c-1.53689,0.87883 -2.74212,2.23868 -3.42999,3.86999c-0.93,-2.06 -2.75,-4 -5,-4c-0.74515,0.00943 -1.47658,0.20172 -2.13001,0.56c-0.4625,0.2587 -0.86141,0.61739 -1.16763,1.0499c-0.30622,0.43251 -0.51202,0.92792 -0.60237,1.4501c-0.12452,0.78864 -0.08487,1.59449 0.11645,2.3671c0.20133,0.7726 0.55999,1.49534 1.05355,2.12292c0.84538,0.95886 1.80987,1.80571 2.87001,2.51999c1.67,1.31 3.42999,2.61999 3.84999,4.42999z"/>
  <path id="svg_18" fill="#ffffff" d="m145.04998,314.99999c0.64129,0.22937 1.21927,0.60712 1.68677,1.10242c0.46749,0.4953 0.81126,1.09412 1.00323,1.74759c0.24325,0.9278 0.27977,1.89769 0.10698,2.84116c-0.1728,0.94346 -0.55069,1.83747 -1.10698,2.61883c-0.85422,1.10979 -1.86472,2.08997 -3,2.91l0.84999,0.13001l1.52,0.17999c0.7664,-0.55209 1.47351,-1.18212 2.11,-1.88c0.86672,-1.01587 1.46536,-2.23251 1.74134,-3.53904c0.27597,-1.30652 0.22051,-2.66135 -0.16133,-3.94094c-0.30251,-0.96532 -0.86131,-1.83048 -1.61681,-2.50321c-0.7555,-0.67273 -1.6794,-1.12783 -2.6732,-1.3168c-0.44335,-0.09699 -0.89617,-0.14396 -1.34999,-0.14002c-1.04158,-0.0339 -2.07118,0.23046 -2.96761,0.76194c-0.89642,0.53147 -1.62236,1.30795 -2.09239,2.23806c1.05729,-1.00115 2.45398,-1.56553 3.90999,-1.57998c0.6972,-0.0059 1.38928,0.11962 2.04001,0.36999z"/>
  <path id="svg_19" fill="#ffffff" d="m128.92997,321.59c-0.20975,-0.75536 -0.24733,-1.54818 -0.10998,-2.32c0.09035,-0.52218 0.29613,-1.0176 0.60235,-1.45011c0.30622,-0.43251 0.70513,-0.7912 1.16763,-1.04989c0.65343,-0.35828 1.38486,-0.55058 2.13001,-0.56c2.25,0 4.07,1.91 5,4c0.68788,-1.63132 1.89311,-2.99116 3.42999,-3.87c-0.64292,0.12414 -1.24835,0.39551 -1.76884,0.79282c-0.52049,0.39731 -0.94189,0.90976 -1.23116,1.49719l-0.23999,0.48999l-0.19999,-0.51001c-0.50184,-1.06303 -1.2855,-1.96813 -2.26577,-2.61694c-0.98026,-0.64881 -2.11964,-1.01649 -3.29425,-1.06305c-1.18515,-0.00613 -2.33484,0.40393 -3.24859,1.15869c-0.91376,0.75476 -1.53359,1.80634 -1.7514,2.97132c-0.08868,0.48465 -0.12223,0.97779 -0.1,1.47c0.65,0.35 1.25999,0.70999 1.87999,1.05999z"/>
  <path id="svg_20" fill-rule="evenodd" fill="#ffffff" d="m134,295.60997c-16.19,5.93 -23.44,27.71001 -9.25,39.85001c10.49,8.82 27.86999,5.3 31.50999,-8.78c1.04664,-4.08136 0.47625,-8.40926 -1.59208,-12.08008c-2.06834,-3.67082 -5.47471,-6.40078 -9.50791,-7.6199c-1.35,-0.41 -6.28,-0.82002 -2.64,-2.20001c2.07962,-0.58518 4.28038,-0.58518 6.36,0c8.3,2.1 13.61,9.90999 14.09,18.23999c-0.43,-1.07 -1.15,3.57 -1.19,3.72c0.32,-3.56 -0.25,-9.39999 -3.28,-11.94998c-0.92,-0.77001 0,3.61 0.08999,4c0.37143,3.07227 0.04691,6.18875 -0.94952,9.11859c-0.99643,2.92984 -2.63923,5.59796 -4.80673,7.80676c-2.1675,2.2088 -4.80416,3.90168 -7.71468,4.95322c-2.91052,1.05154 -6.02032,1.43481 -9.09906,1.12143c-11.22,-1.14 -19.53,-10.19002 -20.76,-21.23001c-2.15,-23.1 25.28,-37.05999 43.07,-23.91999c0.37788,0.3279 0.7321,0.68212 1.06,1.06c2.79168,2.50025 5.28793,5.31186 7.44,8.37998c-7.28,-10.42001 -20.83,-15.31001 -32.83,-10.47001zm18.1,58.62003c-2.10853,0.94972 -4.30146,1.69965 -6.55,2.23999c-22.56,5.25 -43.79,-11.21001 -46.93,-33.61002c0.86809,8.26961 4.07695,16.12005 9.25,22.63001c16.3,19.62 48.15999,18.55003 61.99999,-3.34998c10.82,-17.17 5.23001,-40.93001 -13.53999,-49.80001c-16.88,-7.91001 -38,0.57999 -42.64,19.17999c-3.6,14.85999 5.1,28.69001 19.34,33.07001c0.05,0 2.81999,0.71 1.72999,1c3.43915,0.40049 6.92397,0.08482 10.23517,-0.92713c3.31121,-1.01195 6.37713,-2.69827 9.00484,-4.95288c0.47,-0.41 3.24,-4.38 1,-2.63c-4.18,3.2 -8.77001,5.57 -14.07001,6.16c-18.2,1.87 -31.06,-16.34998 -25.75999,-33.25998c5.13,-16.18 23.51,-23.70001 39.07,-17.54001c23.94001,9.74 26.95,43.36001 6.31,57.76001c-0.6823,0.5358 -1.4363,0.97337 -2.24,1.29999c-0.61,0.21 0.19,-0.48001 -0.36,-0.23001c-1.95,0.93 -3.81001,2.10002 -5.86001,2.96002l0.01001,0z"/>
  <path id="svg_21" fill="#ffffff" d="m142.77002,287c6.35128,0 11.5,-5.14873 11.5,-11.5c0,-6.35128 -5.14872,-11.5 -11.5,-11.5c-6.35127,0 -11.5,5.14872 -11.5,11.5c0,6.35127 5.14873,11.5 11.5,11.5z"/>
 </g>
</svg>